<svg width="97" height="54" viewBox="0 0 97 54" fill="none" xmlns="http://www.w3.org/2000/svg">
<path d="M18.9841 53.02V46.54C26.1841 45.4 30.1441 40.3 30.1441 34.78C30.1441 29.38 26.7241 24.88 19.1641 23.2L13.7041 21.94C10.8841 21.34 9.56409 19.78 9.56409 17.92C9.56409 15.46 11.6641 13.24 15.5041 13.24C20.4241 13.24 21.9841 16.72 22.3441 18.82L29.7241 16.72C28.8841 12.7 25.8841 7.9 18.9841 6.64V0.0399981H12.8641V6.46C6.44409 7.48 1.52409 12.16 1.52409 18.52C1.52409 24.28 5.54409 28.36 12.0241 29.8L17.5441 31C20.5441 31.66 22.0441 33.22 22.0441 35.26C22.0441 37.9 19.7641 39.76 15.8641 39.76C10.3441 39.76 7.82409 36.28 7.46409 32.5L0.0240906 34.3C0.564091 39.4 4.52409 45.46 12.8641 46.6V53.02H18.9841ZM42.4718 22.12C42.2918 21.46 42.1718 20.68 42.1718 19.96C42.1718 16.3 44.2118 13.48 48.3518 13.48C52.2518 13.48 54.2318 16 54.2318 18.82C54.2318 21.52 52.9118 23.56 49.6118 25.54L43.1918 29.38C36.2318 33.58 34.0718 39.16 34.0118 46H62.8118V38.86H44.1518C44.7518 37.36 46.0118 36.28 47.5118 35.32L55.0118 30.76C59.8118 27.82 62.5718 23.74 62.5718 18.7C62.5718 11.92 57.2318 6.16 48.5318 6.16C39.4718 6.16 34.3118 12.34 34.3118 19.18C34.3118 20.14 34.4918 21.34 34.6118 21.88L42.4718 22.12ZM66.8154 44.74C68.8554 46 72.5154 46.9 75.8154 46.9C89.1354 46.9 96.1554 38.62 96.1554 24.58C96.1554 12.16 89.0754 6.16 80.6154 6.16C71.9754 6.16 65.6754 11.86 65.6754 19.84C65.6754 27.88 71.8554 32.92 79.1154 32.92C83.1954 32.92 86.4954 31.18 88.1154 28.72C87.5754 35.86 82.8354 39.76 75.7554 39.76C73.0554 39.76 70.2354 38.86 68.8554 38.08L66.8154 44.74ZM87.0354 19.6C87.0354 23.44 83.9754 26.02 80.3154 26.02C76.6554 26.02 73.6554 23.5 73.6554 19.6C73.6554 15.76 76.7154 13.18 80.3154 13.18C83.9754 13.18 87.0354 15.76 87.0354 19.6Z" fill="#1D293F"/>
</svg>
