<svg width="100" height="54" viewBox="0 0 100 54" fill="none" xmlns="http://www.w3.org/2000/svg">
<path d="M19.49 53.02V46.54C26.69 45.4 30.65 40.3 30.65 34.78C30.65 29.38 27.23 24.88 19.67 23.2L14.21 21.94C11.39 21.34 10.07 19.78 10.07 17.92C10.07 15.46 12.17 13.24 16.01 13.24C20.9299 13.24 22.49 16.72 22.85 18.82L30.23 16.72C29.39 12.7 26.39 7.9 19.49 6.64V0.0399981H13.37V6.46C6.94995 7.48 2.02995 12.16 2.02995 18.52C2.02995 24.28 6.04995 28.36 12.53 29.8L18.05 31C21.05 31.66 22.55 33.22 22.55 35.26C22.55 37.9 20.27 39.76 16.37 39.76C10.85 39.76 8.32995 36.28 7.96995 32.5L0.52995 34.3C1.06995 39.4 5.02995 45.46 13.37 46.6V53.02H19.49ZM34.2833 37.66H52.7033V46H60.8633V37.66H67.2833V30.58H60.8633V7.06H50.6633L34.2833 29.02V37.66ZM52.7033 30.58H41.6033L52.7033 15.7V30.58ZM70.3096 44.74C72.3496 46 76.0096 46.9 79.3096 46.9C92.6296 46.9 99.6496 38.62 99.6496 24.58C99.6496 12.16 92.5696 6.16 84.1096 6.16C75.4696 6.16 69.1696 11.86 69.1696 19.84C69.1696 27.88 75.3496 32.92 82.6096 32.92C86.6896 32.92 89.9896 31.18 91.6096 28.72C91.0696 35.86 86.3296 39.76 79.2496 39.76C76.5496 39.76 73.7296 38.86 72.3496 38.08L70.3096 44.74ZM90.5296 19.6C90.5296 23.44 87.4696 26.02 83.8096 26.02C80.1496 26.02 77.1496 23.5 77.1496 19.6C77.1496 15.76 80.2096 13.18 83.8096 13.18C87.4696 13.18 90.5296 15.76 90.5296 19.6Z" fill="#1D293F"/>
</svg>
