<svg width="112" height="44" viewBox="0 0 112 44" fill="none" xmlns="http://www.w3.org/2000/svg">
<path d="M8.60719 43V26.44H25.1072V18.82H8.54719V8.32H27.1472V0.459997H0.267192V43H8.60719ZM48.2733 13.36C47.6733 13.3 47.0733 13.24 46.4133 13.24C43.8933 13.24 39.8133 13.96 38.0133 17.86V13.48H30.2733V43H38.2533V29.5C38.2533 23.14 41.7933 21.16 45.8733 21.16C46.5933 21.16 47.3733 21.22 48.2733 21.4V13.36ZM58.3792 24.88C58.5592 22.18 60.8392 19.06 64.9792 19.06C69.5392 19.06 71.4592 21.94 71.5792 24.88H58.3792ZM72.3592 32.56C71.3992 35.2 69.3592 37.06 65.6392 37.06C61.6792 37.06 58.3792 34.24 58.1992 30.34H79.3192C79.3192 30.22 79.4392 29.02 79.4392 27.88C79.4392 18.4 73.9792 12.58 64.8592 12.58C57.2992 12.58 50.3392 18.7 50.3392 28.12C50.3392 38.08 57.4792 43.9 65.5792 43.9C72.8392 43.9 77.5192 39.64 79.0192 34.54L72.3592 32.56ZM90.5087 24.88C90.6887 22.18 92.9687 19.06 97.1087 19.06C101.669 19.06 103.589 21.94 103.709 24.88H90.5087ZM104.489 32.56C103.529 35.2 101.489 37.06 97.7687 37.06C93.8087 37.06 90.5087 34.24 90.3287 30.34H111.449C111.449 30.22 111.569 29.02 111.569 27.88C111.569 18.4 106.109 12.58 96.9887 12.58C89.4287 12.58 82.4687 18.7 82.4687 28.12C82.4687 38.08 89.6087 43.9 97.7087 43.9C104.969 43.9 109.649 39.64 111.149 34.54L104.489 32.56Z" fill="#1D293F"/>
</svg>
