<svg width="16" height="16" viewBox="0 0 16 16" fill="none" xmlns="http://www.w3.org/2000/svg">
<path fill-rule="evenodd" clip-rule="evenodd" d="M8.31359 0.205137L10.5966 5.05692L15.7 5.83512C15.8321 5.85566 15.9417 5.95266 15.9829 6.0855C16.024 6.21834 15.9896 6.36408 15.8941 6.46169L12.202 10.2374L13.0737 15.57C13.0966 15.7075 13.0428 15.8466 12.9348 15.9288C12.8269 16.011 12.6836 16.0219 12.5655 15.9569L8.00052 13.4397L3.43557 15.9576C3.31748 16.0228 3.17417 16.0121 3.06616 15.93C2.95816 15.8478 2.9043 15.7086 2.92735 15.571L3.79908 10.2374L0.105869 6.46169C0.0103498 6.36408 -0.0240346 6.21834 0.0171182 6.0855C0.058271 5.95266 0.167857 5.85566 0.299974 5.83512L5.40341 5.05692L7.68745 0.205137C7.74557 0.0796823 7.86718 0 8.00052 0C8.13386 0 8.25547 0.0796823 8.31359 0.205137Z" fill="#D8D7E6"/>
</svg>
